<svg xmlns="http://www.w3.org/2000/svg" width="760" height="160" viewBox="0 0 760 160" role="img" aria-labelledby="title">
  <title id="title">Topic Hunter 横向标识</title>
  <g transform="translate(10 16)">
    <path d="M42 17H20a8 8 0 0 0-8 8v21h12V29h18V17Zm44 0h22a8 8 0 0 1 8 8v21h-12V29H86V17ZM12 82v21a8 8 0 0 0 8 8h22V99H24V82H12Zm104 0v21a8 8 0 0 1-8 8H86V99h18V82h12Z" fill="#315CF5"/>
    <rect x="29" y="39" width="58" height="8" rx="4" fill="#9AA8BB"/>
    <rect x="24" y="54" width="80" height="25" rx="5" fill="#D7FB70"/>
    <rect x="32" y="63" width="58" height="7" rx="3.5" fill="#172036"/>
    <rect x="29" y="87" width="54" height="8" rx="4" fill="#9AA8BB"/>
    <path d="m96 72 2 24 6-9 10 5 3-6-10-5 9-6-20-3Z" fill="#172036" stroke="#fff" stroke-width="2" stroke-linejoin="round"/>
  </g>
  <text x="168" y="98" fill="#172036" font-family="Avenir Next, Inter, Helvetica Neue, sans-serif" font-size="67" font-weight="800" letter-spacing="-3">Topic</text>
  <text x="346" y="98" fill="#315CF5" font-family="Avenir Next, Inter, Helvetica Neue, sans-serif" font-size="67" font-weight="800" letter-spacing="-3">Hunter</text>
  <text x="172" y="129" fill="#526071" font-family="Avenir Next, Helvetica Neue, sans-serif" font-size="16" font-weight="700" letter-spacing="2.8">FIND THE SIGNAL · WRITE YOUR ANGLE</text>
</svg>
